#!OML:ASF F:\VICON\USERDATA\INSTALL\Justin_Nancy\Justin_Nancy.ASF
:FULLY-SPECIFIED
:DEGREES
389
root -0.591575 17.2961 9.09707 44.1638 85.4437 41.1912
lowerback 7.59311 0.578492 -3.172
upperback -0.204867 0.532634 0.861618
thorax -4.51318 0.34945 2.61897
lowerneck -16.6166 -4.12173 -8.74183
upperneck 23.8274 -4.11106 3.95835
head 10.6936 -2.10077 2.32436
rclavicle -2.38542e-015 -4.37326e-015
rhumerus -33.6967 -13.8765 -79.9791
rradius 31.1026
rwrist 7.99043
rhand -12.9372 11.3576
rfingers 7.12502
rthumb 13.1537 -18.2075
lclavicle -2.38542e-015 -4.37326e-015
lhumerus -33.7205 9.55344 86.0196
lradius 32.4747
lwrist -5.2455
lhand -17.5554 23.9082
lfingers 7.12502
lthumb 8.69943 53.7089
rfemur -32.2631 1.72498 14.2437
rtibia 46.3081
rfoot -14.4167 -3.00282
rtoes 7.53962
lfemur -7.21897 -3.16409 -30.7018
ltibia 26.2128
lfoot -19.0003 3.07574
ltoes 1.08498
390
root -0.462966 17.3001 9.14391 45.8577 85.0903 43.0931
lowerback 7.72886 0.591166 -4.10547
upperback -0.118504 0.470396 1.03487
thorax -4.50614 0.340993 3.33394
lowerneck -16.8733 -4.13034 -9.13652
upperneck 23.949 -3.99573 3.9877
head 10.792 -2.08002 2.41592
rclavicle -9.34288e-015 3.97569e-015
rhumerus -33.6261 -13.8384 -79.6928
rradius 30.8346
rwrist 8.57751
rhand -12.8951 11.3734
rfingers 7.12502
rthumb 13.1943 -18.1891
lclavicle -9.34288e-015 3.97569e-015
lhumerus -33.5005 9.61876 86.292
lradius 33.3126
lwrist -4.75975
lhand -16.3248 23.3527
lfingers 7.12502
lthumb 9.8868 53.1006
rfemur -32.1438 1.91189 13.8732
rtibia 43.8283
rfoot -13.9345 -2.86826
rtoes 7.91157
lfemur -6.10903 -2.29933 -30.882
ltibia 25.5127
lfoot -18.3918 -2.02353
ltoes 10.3829
391
root -0.333218 17.2935 9.17032 45.7002 84.9855 43.1113
lowerback 7.89353 0.625113 -4.247
upperback -0.0974206 0.493778 0.978628
thorax -4.57986 0.356625 3.35207
lowerneck -17.0037 -4.13319 -8.8464
upperneck 24.0306 -4.03185 3.83507
head 10.8388 -2.08804 2.30616
rclavicle -4.07509e-015 1.27222e-014
rhumerus -33.7019 -13.6762 -79.7723
rradius 30.6046
rwrist 8.56891
rhand -13.5532 11.1368
rfingers 7.12502
rthumb 12.5599 -18.4657
lclavicle -4.07509e-015 1.27222e-014
lhumerus -33.2667 8.66444 86.3887
lradius 34.0978
lwrist -4.20192
lhand -16.4699 23.6514
lfingers 7.12502
lthumb 9.74686 53.4058
rfemur -32.0005 2.13866 13.717
rtibia 41.1726
rfoot -12.9112 -2.94854
rtoes 9.13716
lfemur -5.04444 -1.69272 -30.9669
ltibia 24.7304
lfoot -18.1985 -2.14621
ltoes 9.64958
392
root -0.200319 17.2863 9.20416 46.2698 84.8774 43.7727
lowerback 7.91396 0.575904 -4.52498
upperback -0.0514155 0.401878 0.956917
thorax -4.53724 0.315583 3.49739
lowerneck -17.1304 -4.05125 -8.57138
upperneck 23.8985 -3.93212 3.62044
head 10.7952 -2.04359 2.19391
rclavicle 6.21202e-015 -1.19271e-014
rhumerus -33.683 -13.0089 -79.9848
rradius 30.5287
rwrist 7.87531
rhand -13.9555 10.8515
rfingers 7.12502
rthumb 12.172 -18.7743
lclavicle 6.21202e-015 -1.19271e-014
lhumerus -32.9579 8.04099 86.3998
lradius 34.7771
lwrist -3.83557
lhand -18.0295 24.5379
lfingers 7.12502
lthumb 8.24186 54.3571
rfemur -31.9191 2.27516 13.6594
rtibia 38.5813
rfoot -11.8974 -3.52391
rtoes 9.74256
lfemur -4.06706 -1.87766 -31.1427
ltibia 24.0082
lfoot -18.0319 -1.77794
ltoes 8.55544
393
root -0.0670635 17.3009 9.24648 44.4583 85.249 42.0145
lowerback 7.89002 0.50534 -4.45894
upperback 0.0058711 0.326356 1.16467
thorax -4.45757 0.276384 3.68645
lowerneck -17.0547 -3.99572 -8.79103
upperneck 23.5896 -3.83972 3.76289
head 10.6684 -2.00473 2.293
rclavicle -8.29926e-015 5.56597e-015
rhumerus -33.6422 -12.7908 -79.918
rradius 30.3945
rwrist 7.79181
rhand -14.001 10.8888
rfingers 7.12502
rthumb 12.1281 -18.7397
lclavicle -8.29926e-015 5.56597e-015
lhumerus -32.6402 8.16228 86.4208
lradius 35.38
lwrist -3.72521
lhand -18.3888 24.1431
lfingers 7.12502
lthumb 7.89512 53.9757
rfemur -31.6368 2.54244 14.1006
rtibia 35.8616
rfoot -10.9209 -4.51723
rtoes 7.62935
lfemur -3.17521 -2.1371 -30.6436
ltibia 23.4366
lfoot -18.0655 -1.91101
ltoes 9.21522
394
root 0.0578557 17.309 9.26587 45.4718 85.3259 42.884
lowerback 7.7419 0.487743 -4.45413
upperback -0.0130768 0.311023 1.20317
thorax -4.39275 0.267683 3.72571
lowerneck -17.0237 -4.02373 -9.06918
upperneck 23.5201 -3.83702 3.89493
head 10.6469 -2.01272 2.38692
rclavicle -1.59028e-015 2.38542e-015
rhumerus -33.6647 -13.1609 -79.6668
rradius 30.1779
rwrist 8.26161
rhand -14.0211 11.1182
rfingers 7.12502
rthumb 12.1088 -18.5114
lclavicle -1.59028e-015 2.38542e-015
lhumerus -32.28 7.65319 86.6492
lradius 35.9712
lwrist -2.78343
lhand -17.9658 23.2626
lfingers 7.12502
lthumb 8.30335 53.0794
rfemur -31.6465 2.51118 14.0564
rtibia 33.1502
rfoot -9.72815 -4.85347
rtoes 8.12157
lfemur -2.5988 -1.98611 -30.5138
ltibia 22.8989
lfoot -18.1087 -2.36077
ltoes 10.0494
395
root 0.174821 17.3014 9.2971 46.3568 85.3109 43.603
lowerback 7.65827 0.415224 -4.72225
upperback -0.0337014 0.196998 1.2807
thorax -4.35787 0.217246 3.97182
lowerneck -17.3792 -4.07718 -9.46525
upperneck 23.7149 -3.83477 4.15467
head 10.8025 -2.01579 2.54617
rclavicle 6.01324e-015 -1.11319e-014
rhumerus -33.6434 -13.2231 -79.6027
rradius 30.0882
rwrist 8.31751
rhand -13.8487 10.9022
rfingers 7.12502
rthumb 12.275 -18.7176
lclavicle 6.01324e-015 -1.11319e-014
lhumerus -32.0032 6.41147 87.0561
lradius 36.7829
lwrist -1.15716
lhand -19.017 23.7288
lfingers 7.12502
lthumb 7.28873 53.5833
rfemur -31.6597 2.44797 14.0616
rtibia 30.4539
rfoot -8.50595 -4.99962
rtoes 9.35874
lfemur -2.06906 -1.45775 -30.4144
ltibia 22.3849
lfoot -18.2078 -2.75747
ltoes 9.60703
396
root 0.304532 17.2905 9.3245 48.4683 85.3558 45.9813
lowerback 7.91298 0.388237 -4.83891
upperback 0.056258 0.136371 1.17593
thorax -4.40089 0.188476 3.93559
lowerneck -17.5456 -4.16399 -9.45259
upperneck 23.7106 -4.00407 4.35811
head 10.8493 -2.067 2.59115
rclavicle -2.38542e-015 -4.77083e-015
rhumerus -33.6528 -13.5607 -79.7261
rradius 29.9697
rwrist 8.2071
rhand -14.0052 10.6629
rfingers 7.12502
rthumb 12.1241 -18.9658
lclavicle -2.38542e-015 -4.77083e-015
lhumerus -31.7231 5.36272 87.1384
lradius 37.4508
lwrist -0.11271
lhand -20.0546 24.2966
lfingers 7.12502
lthumb 6.28708 54.1833
rfemur -31.1162 2.35604 14.0156
rtibia 27.9014
rfoot -7.61157 -5.51223
rtoes 8.32609
lfemur -1.00259 -1.13497 -30.5231
ltibia 21.8178
lfoot -18.2224 -2.74848
ltoes 8.55125
397
root 0.432439 17.2876 9.35166 50.6304 85.3812 48.1935
lowerback 7.94424 0.357622 -5.00395
upperback 0.110413 0.0819967 1.20706
thorax -4.35673 0.163374 4.06805
lowerneck -17.6667 -4.12073 -9.3132
upperneck 23.6376 -3.91596 4.14003
head 10.8308 -2.04008 2.4991
rclavicle 2.13694e-015 7.95139e-015
rhumerus -33.5938 -13.6341 -79.6325
rradius 29.7909
rwrist 8.19599
rhand -14.202 10.747
rfingers 7.12502
rthumb 11.9343 -18.8928
lclavicle 2.13694e-015 7.95139e-015
lhumerus -31.3907 5.14828 87.2371
lradius 37.9858
lwrist -0.12588
lhand -20.2992 24.2656
lfingers 7.12502
lthumb 6.05099 54.1591
rfemur -30.7837 2.27675 13.9975
rtibia 25.4434
rfoot -6.90821 -6.08353
rtoes 6.71293
lfemur -0.181798 -0.64026 -30.517
ltibia 21.249
lfoot -18.2517 -3.0201
ltoes 7.4398
398
root 0.565185 17.2856 9.38047 51.9298 85.4786 49.4509
lowerback 7.75644 0.219274 -5.22552
upperback 0.207779 -0.0995535 1.43867
thorax -4.12941 0.0719945 4.456
lowerneck -17.7886 -3.9373 -9.34461
upperneck 23.4144 -3.54373 3.78428
head 10.7386 -1.91523 2.42591
rclavicle 4.07509e-015 -7.95139e-015
rhumerus -33.3721 -12.8786 -79.5753
rradius 29.6944
rwrist 7.9413
rhand -14.02 10.8634
rfingers 7.12502
rthumb 12.1098 -18.7662
lclavicle 4.07509e-015 -7.95139e-015
lhumerus -31.0033 5.61481 87.4173
lradius 38.4458
lwrist -0.417343
lhand -20.4926 24.447
lfingers 7.12502
lthumb 5.86428 54.3458
rfemur -30.4857 2.43423 13.9453
rtibia 23.1647
rfoot -6.76142 -6.47157
rtoes 6.85319
lfemur 0.650985 -0.625941 -30.4293
ltibia 20.565
lfoot -18.1349 -3.07674
ltoes 6.72671
399
root 0.694376 17.2834 9.41163 53.3597 85.4781 50.8941
lowerback 7.68024 0.229196 -5.37735
upperback 0.252565 -0.0951869 1.42484
thorax -4.04026 0.0733616 4.5263
lowerneck -17.4214 -3.91024 -9.31037
upperneck 22.8623 -3.55336 3.76939
head 10.4652 -1.91745 2.41005
rclavicle 1.12313e-014 -1.11319e-014
rhumerus -33.3489 -13.2601 -79.3576
rradius 29.4669
rwrist 8.53419
rhand -13.2704 11.2475
rfingers 7.12502
rthumb 12.8325 -18.3381
lclavicle 1.12313e-014 -1.11319e-014
lhumerus -30.6542 5.44643 87.3047
lradius 38.8345
lwrist -0.548681
lhand -20.1388 24.4293
lfingers 7.12502
lthumb 6.20578 54.3184
rfemur -30.1809 3.05419 13.6429
rtibia 21.1277
rfoot -6.99579 -7.03791
rtoes 6.7818
lfemur 1.5493 -0.601434 -30.4376
ltibia 19.8007
lfoot -17.9924 -2.97496
ltoes 6.12515
400
root 0.825692 17.2805 9.43036 57.9967 85.3513 55.6294
lowerback 7.69002 0.292829 -5.37004
upperback 0.286283 -0.0228353 1.10436
thorax -4.01891 0.10478 4.17739
lowerneck -17.1687 -4.05489 -9.12902
upperneck 22.6343 -3.87835 3.93471
head 10.3557 -2.03155 2.39234
rclavicle -8.64713e-015 1.27222e-014
rhumerus -33.5875 -14.3011 -79.0652
rradius 29.3724
rwrist 9.51311
rhand -12.7262 11.3504
rfingers 7.12502
rthumb 13.3571 -18.2015
lclavicle -8.64713e-015 1.27222e-014
lhumerus -30.3158 4.71062 87.03
lradius 39.1072
lwrist -1.06231
lhand -19.2593 24.3639
lfingers 7.12502
lthumb 7.05486 54.2264
rfemur -29.8618 2.99373 13.1973
rtibia 19.411
rfoot -7.20084 -7.01724
rtoes 6.01585
lfemur 2.60253 -1.43352 -30.8811
ltibia 18.967
lfoot -17.5638 -2.53202
ltoes 7.30812
401
root 0.956472 17.2757 9.4392 63.5156 85.1698 61.2518
lowerback 7.7118 0.0977499 -5.42536
upperback 0.38651 -0.293417 0.888282
thorax -3.89666 -0.0354833 4.01131
lowerneck -17.5271 -4.02659 -9.04642
upperneck 22.7906 -3.83968 3.96294
head 10.4758 -2.00262 2.3923
rclavicle -1.93815e-015 2.42517e-014
rhumerus -33.4698 -14.1131 -79.2813
rradius 29.2161
rwrist 10.4166
rhand -13.5952 10.8514
rfingers 7.12502
rthumb 12.5194 -18.7535
lclavicle -1.93815e-015 2.42517e-014
lhumerus -29.8739 4.84729 86.7154
lradius 39.336
lwrist -1.62875
lhand -17.9721 24.2842
lfingers 7.12502
lthumb 8.29727 54.1012
rfemur -29.5323 2.59886 12.7717
rtibia 17.925
rfoot -7.39863 -6.75042
rtoes 4.7908
lfemur 3.62237 -2.58891 -31.4907
ltibia 18.2664
lfoot -17.1507 -1.95947
ltoes 8.43775
402
root 1.08756 17.2688 9.46669 64.5598 84.8364 62.3004
lowerback 7.62512 0.0096019 -5.90464
upperback 0.418593 -0.446654 0.867403
thorax -3.79476 -0.106988 4.27602
lowerneck -17.6289 -3.91058 -8.99543
upperneck 22.7638 -3.63832 3.78985
head 10.4663 -1.92627 2.34949
rclavicle 6.75868e-015 -7.95139e-016
rhumerus -33.2452 -13.6098 -79.5965
rradius 28.876
rwrist 11.1088
rhand -14.3931 10.3898
rfingers 7.12502
rthumb 11.75 -19.2606
lclavicle 6.75868e-015 -7.95139e-016
lhumerus -29.5508 5.20087 86.4497
lradius 39.5708
lwrist -1.93212
lhand -17.0027 24.7159
lfingers 7.12502
lthumb 9.23273 54.4937
rfemur -29.2074 2.90722 12.3959
rtibia 16.4668
rfoot -7.46645 -6.65665
rtoes 4.13318
lfemur 4.33579 -3.22252 -31.9567
ltibia 17.9481
lfoot -16.9674 -1.34553
ltoes 8.05672
